<svg width="16" height="16" viewBox="0 0 16 16" fill="none" xmlns="http://www.w3.org/2000/svg">
<path d="M12.0001 2.98693C10.9392 1.92607 9.50041 1.33008 8.00012 1.33008C6.49982 1.33008 5.06098 1.92607 4.00012 2.98693C2.93925 4.0478 2.34326 5.48664 2.34326 6.98693C2.34326 8.48722 2.93925 9.92607 4.00012 10.9869L7.51345 14.5069C7.57542 14.5694 7.64916 14.619 7.7304 14.6529C7.81164 14.6867 7.89877 14.7041 7.98678 14.7041C8.07479 14.7041 8.16193 14.6867 8.24317 14.6529C8.32441 14.619 8.39814 14.5694 8.46011 14.5069L12.0001 10.9536C13.0565 9.89715 13.65 8.4643 13.65 6.97027C13.65 5.47623 13.0565 4.04338 12.0001 2.98693ZM11.0468 10.0003L8.00012 13.0603L4.95345 10.0003C4.35155 9.39781 3.94177 8.63043 3.77591 7.79513C3.61006 6.95982 3.69557 6.0941 4.02165 5.30739C4.34773 4.52068 4.89973 3.8483 5.60787 3.37525C6.31601 2.9022 7.14851 2.64972 8.00012 2.64972C8.85173 2.64972 9.68422 2.9022 10.3924 3.37525C11.1005 3.8483 11.6525 4.52068 11.9786 5.30739C12.3047 6.0941 12.3902 6.95982 12.2243 7.79513C12.0585 8.63043 11.6487 9.39781 11.0468 10.0003ZM6.00012 4.94027C5.46193 5.48011 5.15971 6.21131 5.15971 6.9736C5.15971 7.73589 5.46193 8.46708 6.00012 9.00693C6.39996 9.40746 6.90917 9.68099 7.46388 9.7932C8.01859 9.90542 8.59408 9.85132 9.11816 9.6377C9.64224 9.42408 10.0916 9.06045 10.4098 8.59243C10.728 8.12441 10.9009 7.57285 10.9068 7.00693C10.9098 6.62907 10.837 6.25444 10.6927 5.90519C10.5484 5.55594 10.3356 5.23917 10.0668 4.9736C9.80256 4.70332 9.4875 4.48796 9.13973 4.33991C8.79196 4.19186 8.41834 4.11405 8.04038 4.11095C7.66242 4.10785 7.28758 4.17953 6.93743 4.32186C6.58728 4.46419 6.26873 4.67435 6.00012 4.94027ZM9.12678 8.06027C8.87414 8.31676 8.54026 8.47754 8.1822 8.5151C7.82414 8.55267 7.46416 8.46469 7.16379 8.26622C6.86342 8.06774 6.64131 7.77109 6.53545 7.42699C6.42959 7.08288 6.44655 6.71269 6.58342 6.3797C6.72029 6.04671 6.96858 5.77161 7.28584 5.60142C7.6031 5.43124 7.96962 5.37654 8.32274 5.44668C8.67586 5.51682 8.99366 5.70744 9.22179 5.98595C9.44992 6.26447 9.57423 6.61358 9.57345 6.9736C9.56375 7.38511 9.39111 7.77595 9.09345 8.06027H9.12678Z" fill="#858685"/>
</svg>
