<svg width="17" height="16" viewBox="0 0 17 16" fill="none" xmlns="http://www.w3.org/2000/svg">
<path d="M8.24958 1.72581L8.51707 2.14824C8.54234 2.13224 8.57108 2.12402 8.60004 2.12402C8.629 2.12402 8.65774 2.13224 8.683 2.14824C8.70832 2.16427 8.72936 2.18765 8.74307 2.21624L8.74306 2.21625L8.74462 2.21946L10.4273 5.66612L10.543 5.90299L10.8038 5.94142L14.5585 6.49475L14.5734 6.49695L14.5883 6.49824C14.6181 6.50081 14.647 6.51207 14.6715 6.53133C14.6915 6.54708 14.7079 6.56772 14.7191 6.59174C14.723 6.61766 14.7211 6.64427 14.7133 6.66938C14.7037 6.70022 14.6859 6.72697 14.6626 6.7469L14.65 6.75774L14.6381 6.76938L11.9127 9.43605L11.7247 9.62006L11.7698 9.87927L12.4297 13.6659L12.4297 13.6659L12.4309 13.6727C12.437 13.7049 12.4338 13.7382 12.4219 13.7683C12.4099 13.7985 12.39 13.8237 12.3652 13.8417L12.3632 13.8432C12.3358 13.8632 12.3034 13.8736 12.2708 13.8734L12.2674 13.8734C12.2486 13.8735 12.2299 13.8687 12.213 13.859L12.2065 13.8553L12.1999 13.8518L8.83449 12.0651L8.60093 11.9411L8.36698 12.0644L4.98836 13.8444L4.98836 13.8444L4.98533 13.846C4.95943 13.8599 4.93061 13.866 4.90201 13.8641C4.87339 13.8622 4.84543 13.8522 4.82129 13.8348L4.52853 14.2401C4.42616 14.166 4.3469 14.0639 4.30013 13.9457C4.25336 13.8276 4.24102 13.6984 4.26458 13.5734L4.92447 9.78676L2.19913 7.1201M8.24958 1.72581L4.82167 13.835C4.79685 13.8171 4.77694 13.7918 4.76502 13.7617C4.75307 13.7315 4.74986 13.6983 4.75593 13.666L4.75597 13.6661L4.75716 13.6593L5.41704 9.8726L5.46221 9.6134L5.27415 9.42939L2.55239 6.76621M8.24958 1.72581L8.51707 2.14824C8.49176 2.16427 8.47072 2.18765 8.45701 2.21624L8.4553 2.21981L8.45528 2.2198L6.77257 5.6598L6.6571 5.89586L6.39718 5.93463L2.64243 6.49463L2.63974 6.49503L2.63974 6.49502C2.61114 6.49913 2.58369 6.51132 2.56065 6.53086C2.53869 6.54948 2.52152 6.57415 2.51147 6.60262L8.24958 1.72581ZM2.19913 7.1201L2.55412 6.76799C2.55354 6.7674 2.55296 6.76681 2.55239 6.76621M2.19913 7.1201C2.11431 7.03458 2.05414 6.92734 2.02507 6.80989C1.99601 6.69244 1.99915 6.56921 2.03416 6.45343L2.55239 6.76621M2.19913 7.1201L2.54882 6.76272L2.55239 6.76621M11.4901 9.47104L11.4901 9.47108L11.4954 9.46576L13.475 7.47243L14.1737 6.76897L13.1927 6.62537L10.4146 6.2187L10.4146 6.21869L10.4117 6.2183C10.3867 6.21477 10.3625 6.20505 10.3413 6.18957C10.3201 6.17406 10.3024 6.15316 10.2904 6.12834L10.2901 6.12779L9.04954 3.58113L8.58829 2.63427L8.14621 3.59023L6.97426 6.12452C6.96226 6.14809 6.94518 6.16799 6.92478 6.1829C6.9036 6.19839 6.8794 6.20811 6.85435 6.21163L6.85434 6.21162L6.85151 6.21204L4.07338 6.6187L3.09443 6.762L3.79044 7.46517L5.77011 9.46517L5.77006 9.46522L5.77601 9.47104C5.79505 9.48964 5.80971 9.51309 5.81824 9.53956L6.29411 9.38608L5.81824 9.53956C5.82679 9.56604 5.82882 9.59439 5.82406 9.622L5.82391 9.62292L5.34879 12.4163L5.17725 13.4248L6.07839 12.9405L8.55957 11.6072L8.55976 11.6071C8.5826 11.5948 8.60774 11.5885 8.63303 11.5885C8.65832 11.5885 8.68347 11.5948 8.7063 11.6071L8.7065 11.6072L11.1877 12.9405L12.0888 13.4248L11.9173 12.4163L11.4422 9.62292L11.442 9.622C11.4372 9.59439 11.4393 9.56604 11.4478 9.53956L10.972 9.38608L11.4478 9.53956C11.4564 9.51309 11.471 9.48965 11.4901 9.47104Z" fill="#26266D" stroke="#26266D"/>
<path d="M7.01629 6.47706L8.60002 3.33301L10.1837 6.47706L13.8791 7.00106L11.2396 9.62111L11.7675 13.2892L8.60002 11.7171C7.72017 12.2411 5.85489 12.87 5.43256 13.2892C5.01023 13.7084 5.60853 11.0185 5.96047 9.62111L3.32092 7.00106L7.01629 6.47706Z" fill="#26266D"/>
</svg>
